<?xml version="1.0" encoding="UTF-8"?>
<svg version="1.1" xmlns="http://www.w3.org/2000/svg" width="800" height="800">
<path d="M0 0 C264 0 528 0 800 0 C800 264 800 528 800 800 C536 800 272 800 0 800 C0 536 0 272 0 0 Z " fill="#000000" transform="translate(0,0)"/>
<path d="M0 0 C1.07397461 1.54931641 1.07397461 1.54931641 1.90234375 3.6015625 C2.22823486 4.3853125 2.55412598 5.1690625 2.88989258 5.9765625 C3.23560303 6.85054687 3.58131348 7.72453125 3.9375 8.625 C4.73171932 10.5547087 5.52599352 12.48439482 6.3203125 14.4140625 C6.74860352 15.47012695 7.17689453 16.52619141 7.61816406 17.61425781 C9.07256361 21.17779367 10.55803501 24.72751569 12.0546875 28.2734375 C17.87499517 42.07054133 23.62368021 55.8968428 29.34130859 69.73681641 C33.35755121 79.45614971 37.39264016 89.1675421 41.4375 98.875 C41.75423676 99.63518433 42.07097351 100.39536865 42.39730835 101.17858887 C47.0791349 112.41282694 51.78103712 123.63853545 56.49487305 134.859375 C59.84257833 142.82961777 63.1674424 150.8088497 66.46313477 158.80078125 C68.69710696 164.21647142 70.94123368 169.62792876 73.18695068 175.03875732 C74.04504709 177.10866287 74.90076279 179.17954345 75.75634766 181.25048828 C77.27893491 184.93291528 78.81218836 188.61076754 80.35159302 192.28619385 C80.937734 193.68975452 81.52078778 195.09460961 82.10031128 196.50091553 C90.59039864 218.10195951 90.59039864 218.10195951 106.4375 234 C107.283125 234.33 108.12875 234.66 109 235 C109 236.65 109 238.3 109 240 C91.51 240 74.02 240 56 240 C56 238.35 56 236.7 56 235 C56.825 234.608125 57.65 234.21625 58.5 233.8125 C61.11396331 232.30565926 61.11396331 232.30565926 61.54296875 230.15625 C62.07546024 221.52125279 58.23878858 213.78871833 55 206 C54.09326421 203.78795949 53.18705477 201.57570317 52.28125 199.36328125 C48.2364807 189.52105347 44.14497894 179.69890028 40 169.8984375 C39.30342285 168.24521484 39.30342285 168.24521484 38.59277344 166.55859375 C37.71540775 164.47843947 36.83344009 162.40021861 35.94628906 160.32421875 C35.55666992 159.39996094 35.16705078 158.47570312 34.765625 157.5234375 C34.42305664 156.71825684 34.08048828 155.91307617 33.72753906 155.08349609 C33 153 33 153 33 150 C0.66 150 -31.68 150 -65 150 C-65.495 152.97 -65.495 152.97 -66 156 C-66.68730164 158.08772278 -66.68730164 158.08772278 -67.48706055 159.99145508 C-67.7879509 160.71694046 -68.08884125 161.44242584 -68.39884949 162.18989563 C-68.72484634 162.95867538 -69.0508432 163.72745514 -69.38671875 164.51953125 C-69.72621048 165.33636887 -70.06570221 166.15320648 -70.41548157 166.99479675 C-71.50017548 169.60324028 -72.59302832 172.20814555 -73.6875 174.8125 C-84.37249228 197.39194132 -84.37249228 197.39194132 -89.1875 221.4375 C-89.20876953 222.82775391 -89.20876953 222.82775391 -89.23046875 224.24609375 C-88.97840274 227.25806893 -88.42818205 229.33650935 -87 232 C-85.31953843 233.21526985 -85.31953843 233.21526985 -83.375 233.8125 C-82.26125 234.204375 -81.1475 234.59625 -80 235 C-80 236.65 -80 238.3 -80 240 C-92.87 240 -105.74 240 -119 240 C-119 238.35 -119 236.7 -119 235 C-118.03900391 234.5978125 -118.03900391 234.5978125 -117.05859375 234.1875 C-100.98146751 226.9036753 -95.15535387 210.65922052 -88.875 195.25 C-88.20705391 193.62739375 -87.53858814 192.00500133 -86.86962891 190.3828125 C-82.2484892 179.15318845 -77.71569252 167.88820126 -73.22877502 156.60432434 C-68.50961531 144.73907583 -63.72220564 132.90143725 -58.9375 121.0625 C-58.49072906 119.9570282 -58.04395813 118.8515564 -57.58364868 117.71258545 C-55.76164545 113.20452694 -53.93957214 108.6964968 -52.11717224 104.18859863 C-49.39298457 97.44934955 -46.67182642 90.70888837 -43.95365906 83.96720886 C-42.23318475 79.70029821 -40.51157135 75.43384763 -38.78982544 71.16744995 C-37.98354362 69.16873633 -37.17776227 67.16982073 -36.37252808 65.17068481 C-35.25104936 62.38666178 -34.12800116 59.60328015 -33.00390625 56.8203125 C-32.65654922 55.95953094 -32.3091922 55.09874939 -31.9513092 54.21188354 C-29.45458125 48.05183799 -26.83903337 41.95310721 -24.12133789 35.88745117 C-22.01142719 30.45441964 -20.93412659 25.06556512 -22.8828125 19.4609375 C-23.95129391 17.08275652 -23.95129391 17.08275652 -25.1875 14.97265625 C-26.22795221 12.44655834 -26.02905222 11.51352246 -25 9 C-23.0222168 7.61206055 -23.0222168 7.61206055 -20.44921875 6.38671875 C-19.52302734 5.94392578 -18.59683594 5.50113281 -17.64257812 5.04492188 C-16.17981445 4.37299805 -16.17981445 4.37299805 -14.6875 3.6875 C-13.72392578 3.22021484 -12.76035156 2.75292969 -11.76757812 2.27148438 C-3.46719738 -1.62273445 -3.46719738 -1.62273445 0 0 Z " fill="#A79786" transform="translate(332,224)"/>
<path d="M0 0 C1.06734375 0.37769531 2.1346875 0.75539063 3.234375 1.14453125 C5.89961193 2.20987313 7.80561185 3.16357589 10 5 C10.60717773 6.90673828 10.60717773 6.90673828 10.74609375 9.1953125 C10.8013623 10.08412109 10.85663086 10.97292969 10.91357422 11.88867188 C11.08710005 18.1356018 11.10187676 24.37672474 11.0625 30.625 C11.05747197 32.02473797 11.05291138 33.4244777 11.04882812 34.82421875 C11.03713167 38.21619169 11.02074086 41.60807233 11 45 C10.01 45.33 9.02 45.66 8 46 C7.43152344 44.94941406 6.86304688 43.89882813 6.27734375 42.81640625 C2.04761932 35.08663323 -2.1026508 27.60652411 -8 21 C-9.07121094 19.77216797 -9.07121094 19.77216797 -10.1640625 18.51953125 C-16.62962974 11.55904274 -23.60091916 7.20441793 -32 3 C-32.83144531 2.57847656 -33.66289063 2.15695312 -34.51953125 1.72265625 C-50.72993773 -5.5955 -71.22128032 -6.1822386 -88 -1 C-100.23499689 3.75476272 -109.29346954 11.06306087 -115 23 C-117.21992529 28.26374037 -117.38549818 33.12192407 -117.375 38.75 C-117.37338867 39.64090332 -117.37177734 40.53180664 -117.37011719 41.44970703 C-117.2480668 47.98658224 -116.40298266 53.30880486 -113 59 C-112.38125 60.051875 -111.7625 61.10375 -111.125 62.1875 C-110.42375 63.115625 -109.7225 64.04375 -109 65 C-108.236875 66.0725 -107.47375 67.145 -106.6875 68.25 C-89.37814965 87.64327705 -57.78623252 95.65039373 -34.51416016 104.99853516 C-13.7158667 113.41787522 6.8782816 125.66534229 16.3046875 146.9453125 C22.22482492 163.23589754 19.35947322 179.82125082 12.3125 195.25 C9.06598773 201.37687655 4.9054572 206.14255706 0 211 C-0.73863281 211.77214844 -1.47726562 212.54429687 -2.23828125 213.33984375 C-18.41022944 229.23999449 -41.43582198 234.43618044 -63.375 234.375 C-64.0763205 234.37478851 -64.77764099 234.37457703 -65.50021362 234.37435913 C-77.66813042 234.33788218 -89.23290345 233.21660209 -101 230 C-101.68787598 229.81276367 -102.37575195 229.62552734 -103.08447266 229.43261719 C-111.52275346 227.04407425 -119.5921175 223.73101371 -127.39453125 219.75 C-129.82090527 218.51489777 -131.93344611 217.70619401 -134.57421875 216.875 C-138.52203836 215.37996772 -140.41135619 214.37072524 -143 211 C-144.77330181 204.00915407 -144.3116303 196.62839341 -144.09521484 189.47753906 C-143.96917975 184.87434957 -144.01038867 180.2778904 -144.04394531 175.67358398 C-144.07008069 171.11536745 -144.04004236 166.55805234 -144 162 C-142.68 162 -141.36 162 -140 162 C-139.57589844 163.01578125 -139.15179688 164.0315625 -138.71484375 165.078125 C-128.37315072 189.50370826 -113.24430378 211.34045266 -87.92553711 221.65673828 C-68.70086147 228.97671836 -46.94398636 230.08394784 -27.94921875 221.64453125 C-16.70331515 215.96831739 -9.67147973 207.35236826 -5.125 195.625 C-1.82664233 184.57842935 -4.00022444 172.59278905 -9.3515625 162.6015625 C-23.21458658 140.72295104 -50.70737428 130.8650303 -73.74389648 121.86230469 C-97.36322543 112.63126858 -124.95795213 101.6993176 -136 77 C-141.32338137 64.34260761 -141.24654504 46.09479893 -136.9375 33.125 C-134.37838545 27.17542014 -131.03408672 22.04488498 -127 17 C-126.56300781 16.38898438 -126.12601562 15.77796875 -125.67578125 15.1484375 C-114.26341917 0.13758287 -93.85107037 -6.52908094 -75.98120117 -9.31469727 C-50.08724902 -12.6431921 -24.15465482 -9.79034413 0 0 Z " fill="#A79786" transform="translate(565,329)"/>
<path d="M0 0 C2.91296858 2.91296858 4.03251302 6.56099934 5.5625 10.3203125 C5.90997787 11.16266953 6.25745575 12.00502655 6.61546326 12.87290955 C7.74822789 15.62174437 8.87407986 18.3733555 10 21.125 C10.77820259 23.0164106 11.55693121 24.90760485 12.33618164 26.79858398 C13.87088387 30.52389301 15.40341453 34.25008222 16.93408203 37.97705078 C19.41494185 44.01403995 21.92127808 50.04016131 24.4375 56.0625 C25.20450011 57.9010112 25.97142862 59.73955228 26.73828125 61.578125 C27.10646973 62.46048828 27.4746582 63.34285156 27.85400391 64.25195312 C29.08501561 67.2038636 30.31417045 70.15654249 31.54296875 73.109375 C31.97053467 74.13651611 32.39810059 75.16365723 32.83862305 76.22192383 C33.68287151 78.25026721 34.52679507 80.27874585 35.37036133 82.30737305 C37.36515076 87.09908736 39.37183482 91.88511701 41.40625 96.66015625 C41.78120605 97.5421167 42.15616211 98.42407715 42.54248047 99.33276367 C43.24670932 100.98660559 43.95390988 102.63918633 44.66455078 104.2902832 C47 109.77840632 47 109.77840632 47 112 C16.64 112 -13.72 112 -45 112 C-43.25835312 106.77505936 -41.55496811 101.69556659 -39.546875 96.59375 C-39.09578369 95.44567871 -38.64469238 94.29760742 -38.17993164 93.11474609 C-37.7080542 91.92187988 -37.23617676 90.72901367 -36.75 89.5 C-36.25703235 88.24953053 -35.76411283 86.99904209 -35.27124023 85.74853516 C-32.09625739 77.70644815 -28.86178798 69.69145045 -25.53515625 61.7109375 C-24.41203978 59.01363769 -23.32135103 56.30502033 -22.2421875 53.58984375 C-20.43588454 49.06011899 -18.58508637 44.54980992 -16.72265625 40.04296875 C-16.42716385 39.32759949 -16.13167145 38.61223022 -15.82722473 37.87518311 C-14.59882734 34.90227916 -13.36988796 31.92960263 -12.13891602 28.95776367 C-8.61992181 20.45921957 -5.16435968 11.95407054 -1.94311523 3.3371582 C-1 1 -1 1 0 0 Z " fill="#020201" transform="translate(315,257)"/>
<path d="M0 0 C0.66 0 1.32 0 2 0 C-0.11846777 6.71671633 -2.65750988 13.19309162 -5.375 19.6875 C-8.42394862 27.03820439 -11.31195999 34.37912917 -13.83203125 41.9296875 C-14.97558422 44.9358167 -16.38426245 47.71663175 -17.84692383 50.57666016 C-20.34908731 55.8352828 -22.34213249 61.31991417 -24.4375 66.75 C-25.8305368 70.34368716 -27.22690462 73.93568637 -28.64013672 77.52148438 C-29.54524429 79.8367398 -30.42724265 82.16116535 -31.28564453 84.49414062 C-31.6979834 85.57373047 -32.11032227 86.65332031 -32.53515625 87.765625 C-32.89101807 88.72758789 -33.24687988 89.68955078 -33.61352539 90.68066406 C-35.35986156 93.60198711 -36.79686851 94.04675111 -40 95 C-40.99 95.495 -40.99 95.495 -42 96 C-39.61247325 86.96637282 -36.05035397 78.43215789 -32.5 69.8125 C-31.15832269 66.54371861 -29.81902624 63.2739663 -28.48046875 60.00390625 C-28.12667648 59.14078827 -27.77288422 58.27767029 -27.40837097 57.38839722 C-24.96899996 51.42064243 -22.58111108 45.43404609 -20.21890259 39.43534851 C-18.51200129 35.10183013 -16.79378464 30.77283331 -15.07519531 26.44393921 C-14.23374843 24.31553168 -13.39763847 22.18500647 -12.56689453 20.05239868 C-11.39840959 17.0552313 -10.21111211 14.06617044 -9.01953125 11.078125 C-8.67215408 10.17259384 -8.32477692 9.26706268 -7.96687317 8.33409119 C-7.6346727 7.5113118 -7.30247223 6.68853241 -6.96020508 5.84082031 C-6.67679764 5.11969055 -6.3933902 4.39856079 -6.10139465 3.65557861 C-5 2 -5 2 -2.93998718 1.32244873 C-2.29979141 1.21604065 -1.65959564 1.10963257 -1 1 C-0.67 0.67 -0.34 0.34 0 0 Z " fill="#9E9183" transform="translate(308,269)"/>
<path d="M0 0 C0.99 0 1.98 0 3 0 C5.31 5.61 7.62 11.22 10 17 C9.01 17 8.02 17 7 17 C6.67 15.68 6.34 14.36 6 13 C3.03 13 0.06 13 -3 13 C-3.33 14.65 -3.66 16.3 -4 18 C-4.99 17.67 -5.98 17.34 -7 17 C-4.69 11.39 -2.38 5.78 0 0 Z " fill="#D5D5D5" transform="translate(267,510)"/>
<path d="M0 0 C0.99 0 1.98 0 3 0 C5.31 5.61 7.62 11.22 10 17 C9.01 17 8.02 17 7 17 C6.67 15.68 6.34 14.36 6 13 C3.03 13 0.06 13 -3 13 C-3.33 14.65 -3.66 16.3 -4 18 C-4.99 17.67 -5.98 17.34 -7 17 C-4.69 11.39 -2.38 5.78 0 0 Z " fill="#D5D5D5" transform="translate(243,510)"/>
<path d="M0 0 C4.29 0 8.58 0 13 0 C13 0.66 13 1.32 13 2 C9.7 2 6.4 2 3 2 C3 3.65 3 5.3 3 7 C5.64 7 8.28 7 11 7 C11 7.99 11 8.98 11 10 C8.36 10 5.72 10 3 10 C3 11.98 3 13.96 3 16 C6.3 16 9.6 16 13 16 C13 16.66 13 17.32 13 18 C8.71 18 4.42 18 0 18 C0 12.06 0 6.12 0 0 Z " fill="#C3C3C3" transform="translate(318,546)"/>
<path d="M0 0 C3 1 3 1 4.60546875 4.0546875 C5.14407431 5.32340281 5.67099484 6.59712797 6.1875 7.875 C6.46013672 8.51308594 6.73277344 9.15117188 7.01367188 9.80859375 C8.2167376 12.69715757 9 14.8415827 9 18 C8.34 18 7.68 18 7 18 C6.34 16.68 5.68 15.36 5 14 C2.36 14 -0.28 14 -3 14 C-3.66 15.32 -4.32 16.64 -5 18 C-5.66 18 -6.32 18 -7 18 C-5.06375702 11.79522136 -2.74390859 5.89174281 0 0 Z " fill="#DEDEDE" transform="translate(270,546)"/>
<path d="M0 0 C3.37161357 1.12387119 3.72035171 1.70399403 5.5625 4.5625 C6.74992017 6.46890121 6.74992017 6.46890121 8 8 C8.66 8 9.32 8 10 8 C11.51199628 6.2072358 11.51199628 6.2072358 13 4 C14.5625 1.75 14.5625 1.75 16 0 C16.66 0 17.32 0 18 0 C18 5.94 18 11.88 18 18 C17.34 18 16.68 18 16 18 C15.67 14.04 15.34 10.08 15 6 C13.35 7.98 11.7 9.96 10 12 C6.28139821 10.46126823 5.64366459 9.52488612 3 6 C2.67 9.96 2.34 13.92 2 18 C1.34 18 0.68 18 0 18 C0 12.06 0 6.12 0 0 Z " fill="#E3E3E3" transform="translate(289,546)"/>
<path d="M0 0 C4.12638505 2.06319252 5.50114255 3.55148531 8.25 7.125 C8.95640625 8.03507813 9.6628125 8.94515625 10.390625 9.8828125 C11.18726563 10.93082031 11.18726563 10.93082031 12 12 C12.33 8.04 12.66 4.08 13 0 C13.66 0 14.32 0 15 0 C15 5.94 15 11.88 15 18 C10.67382245 15.83691123 9.46119756 14.26104984 6.75 10.375 C6.04359375 9.37210938 5.3371875 8.36921875 4.609375 7.3359375 C4.07828125 6.56507813 3.5471875 5.79421875 3 5 C2.67 9.29 2.34 13.58 2 18 C1.34 18 0.68 18 0 18 C0 12.06 0 6.12 0 0 Z " fill="#CCCCCC" transform="translate(354,546)"/>
<path d="M0 0 C2.4375 2 2.4375 2 4 4 C3.01 4 2.02 4 1 4 C0.67 3.67 0.34 3.34 0 3 C-4.66560376 2.60443117 -4.66560376 2.60443117 -9 4.0625 C-10.61647822 7.19442656 -9.78665296 9.67185286 -9 13 C-7.21342243 15.21370051 -7.21342243 15.21370051 -4.8359375 15.1953125 C-4.02382812 15.17210937 -3.21171875 15.14890625 -2.375 15.125 C-1.55773437 15.10695313 -0.74046875 15.08890625 0.1015625 15.0703125 C0.72804687 15.04710937 1.35453125 15.02390625 2 15 C2 13.68 2 12.36 2 11 C0.68 11 -0.64 11 -2 11 C-2 10.34 -2 9.68 -2 9 C-0.02 9 1.96 9 4 9 C4.48192771 14.42168675 4.48192771 14.42168675 2.4375 16.875 C-0.95921611 18.44271513 -3.29614162 18.4548598 -7 18 C-9.95473023 16.45840162 -11.52908229 15.31912036 -12.66796875 12.12890625 C-13.41605771 8.21069776 -13.33289313 6.53951646 -11.1875 3.0625 C-7.52660374 -0.38920219 -4.98979385 -0.43015464 0 0 Z " fill="#D6D6D6" transform="translate(250,546)"/>
<path d="M0 0 C4.29 0 8.58 0 13 0 C13 0.66 13 1.32 13 2 C9.37 2 5.74 2 2 2 C2 3.98 2 5.96 2 8 C4.97 8 7.94 8 11 8 C11 8.66 11 9.32 11 10 C8.03 10 5.06 10 2 10 C2 11.98 2 13.96 2 16 C5.63 16 9.26 16 13 16 C13 16.66 13 17.32 13 18 C8.71 18 4.42 18 0 18 C0 12.06 0 6.12 0 0 Z " fill="#DDDDDD" transform="translate(332,510)"/>
<path d="M0 0 C2.4375 2 2.4375 2 4 4 C3.484375 3.835 2.96875 3.67 2.4375 3.5 C-0.77682668 2.84065094 -3.72846085 2.81824783 -7 3 C-9.15705515 4.7564331 -9.15705515 4.7564331 -9.265625 6.875 C-9.26046875 7.57625 -9.2553125 8.2775 -9.25 9 C-9.25515625 9.70125 -9.2603125 10.4025 -9.265625 11.125 C-9.15705515 13.2435669 -9.15705515 13.2435669 -7 15 C-4.78927023 15.24253813 -4.78927023 15.24253813 -2.375 15.125 C-1.55773437 15.10695313 -0.74046875 15.08890625 0.1015625 15.0703125 C0.72804688 15.04710937 1.35453125 15.02390625 2 15 C2 13.68 2 12.36 2 11 C0.68 11 -0.64 11 -2 11 C-2 10.34 -2 9.68 -2 9 C-0.02 9 1.96 9 4 9 C4.48192771 14.42168675 4.48192771 14.42168675 2.4375 16.875 C-0.99382086 18.45868655 -3.26030159 18.52486995 -7 18 C-9.91963173 16.01216563 -11.61102978 14.5685303 -12.48046875 11.0625 C-12.75815509 7.09984094 -12.23092162 5.33588599 -9.9375 2 C-6.25623347 -0.50639423 -4.37098953 -0.71525283 0 0 Z " fill="#DCDCDC" transform="translate(392,546)"/>
<path d="M0 0 C0.66 0 1.32 0 2 0 C2 2.64 2 5.28 2 8 C5.3 8 8.6 8 12 8 C12 5.36 12 2.72 12 0 C12.66 0 13.32 0 14 0 C14 5.94 14 11.88 14 18 C13.34 18 12.68 18 12 18 C12 15.36 12 12.72 12 10 C8.7 10 5.4 10 2 10 C2 12.64 2 15.28 2 18 C1.34 18 0.68 18 0 18 C0 12.06 0 6.12 0 0 Z " fill="#D5D5D5" transform="translate(307,510)"/>
<path d="M0 0 C4.29 0 8.58 0 13 0 C11.93913813 4.2434475 10.53401667 6.28797778 7.9375 9.75 C7.20402344 10.73484375 6.47054688 11.7196875 5.71484375 12.734375 C5.14894531 13.48203125 4.58304687 14.2296875 4 15 C6.97 15.33 9.94 15.66 13 16 C13 16.66 13 17.32 13 18 C8.71 18 4.42 18 0 18 C1.63949163 13.90127093 3.10151612 11.19233872 5.625 7.6875 C6.25664062 6.80449219 6.88828125 5.92148437 7.5390625 5.01171875 C8.02117187 4.34785156 8.50328125 3.68398438 9 3 C6.03 2.67 3.06 2.34 0 2 C0 1.34 0 0.68 0 0 Z " fill="#E1E1E1" transform="translate(353,510)"/>
<path d="M0 0 C-0.66 0 -1.32 0 -2 0 C-1.67 1.32 -1.34 2.64 -1 4 C-2.22976563 4.50660156 -2.22976563 4.50660156 -3.484375 5.0234375 C-4.56203125 5.46945312 -5.6396875 5.91546875 -6.75 6.375 C-7.81734375 6.81585938 -8.8846875 7.25671875 -9.984375 7.7109375 C-12.37555926 8.73307585 -14.69383183 9.80213595 -17 11 C-17 9.68 -17 8.36 -17 7 C-17.33 6.01 -17.66 5.02 -18 4 C-16.22934889 3.35366725 -14.45847247 2.7079517 -12.6875 2.0625 C-11.70136719 1.70285156 -10.71523438 1.34320313 -9.69921875 0.97265625 C-3.7609375 -1.1671875 -3.7609375 -1.1671875 0 0 Z " fill="#9B8F80" transform="translate(481,323)"/>
<path d="M0 0 C0.66 0.33 1.32 0.66 2 1 C2 1.66 2 2.32 2 3 C-0.64 3 -3.28 3 -6 3 C-6 3.99 -6 4.98 -6 6 C-5.43410156 6.23074219 -4.86820312 6.46148438 -4.28515625 6.69921875 C1.70456754 9.36248785 1.70456754 9.36248785 3.1875 12.5625 C3 15 3 15 2 16.8125 C-1.01040588 18.59992849 -3.57483622 18.24910282 -7 18 C-7.66 17.67 -8.32 17.34 -9 17 C-9 16.34 -9 15.68 -9 15 C-6.03 15 -3.06 15 0 15 C0 14.01 0 13.02 0 12 C-0.56589844 11.72285156 -1.13179688 11.44570313 -1.71484375 11.16015625 C-2.44832031 10.79792969 -3.18179687 10.43570313 -3.9375 10.0625 C-5.03384766 9.52302734 -5.03384766 9.52302734 -6.15234375 8.97265625 C-8 8 -8 8 -9 7 C-9.25 4.5625 -9.25 4.5625 -9 2 C-5.54337669 -0.30441554 -4.05142119 -0.25860135 0 0 Z " fill="#D8D8D8" transform="translate(294,510)"/>
<path d="M0 0 C0.66 0.33 1.32 0.66 2 1 C2 1.66 2 2.32 2 3 C4.64 2.67 7.28 2.34 10 2 C7.07880232 4.41847994 4.5084932 5.68706766 0.875 6.75 C-0.42824219 7.14445313 -0.42824219 7.14445313 -1.7578125 7.546875 C-4 8 -4 8 -6 7 C-7.70363822 6.77377919 -9.41328701 6.59111527 -11.125 6.4375 C-12.03507813 6.35371094 -12.94515625 6.26992188 -13.8828125 6.18359375 C-14.58148437 6.12300781 -15.28015625 6.06242188 -16 6 C-16 5.67 -16 5.34 -16 5 C-15.01257813 4.72285156 -14.02515625 4.44570313 -13.0078125 4.16015625 C-11.71351203 3.79437568 -10.41924281 3.42848451 -9.125 3.0625 C-8.47402344 2.88009766 -7.82304688 2.69769531 -7.15234375 2.50976562 C-3.49203515 1.48107307 -3.49203515 1.48107307 0 0 Z " fill="#9B8E80" transform="translate(536,551)"/>
<path d="M0 0 C0.99 0 1.98 0 3 0 C5.31 5.61 7.62 11.22 10 17 C9.01 17 8.02 17 7 17 C6.67 15.68 6.34 14.36 6 13 C3.03 13 0.06 13 -3 13 C-3 12.67 -3 12.34 -3 12 C-0.36 12 2.28 12 5 12 C4.72285156 11.46890625 4.44570313 10.9378125 4.16015625 10.390625 C3.79792969 9.68421875 3.43570312 8.9778125 3.0625 8.25 C2.70285156 7.55390625 2.34320313 6.8578125 1.97265625 6.140625 C1.04441818 4.09775567 0.46833422 2.18884624 0 0 Z " fill="#DFDFDF" transform="translate(267,510)"/>
<path d="M0 0 C0.99 0 1.98 0 3 0 C5.31 5.61 7.62 11.22 10 17 C9.01 17 8.02 17 7 17 C6.67 15.68 6.34 14.36 6 13 C3.03 13 0.06 13 -3 13 C-3 12.67 -3 12.34 -3 12 C-0.36 12 2.28 12 5 12 C4.72285156 11.46890625 4.44570312 10.9378125 4.16015625 10.390625 C3.79792969 9.68421875 3.43570313 8.9778125 3.0625 8.25 C2.70285156 7.55390625 2.34320313 6.8578125 1.97265625 6.140625 C1.04441818 4.09775567 0.46833422 2.18884624 0 0 Z " fill="#DFDFDF" transform="translate(243,510)"/>
<path d="M0 0 C3.55780196 0.60990891 6.6828589 1.5783681 10 3 C10 4.65 10 6.3 10 8 C9.34 7.01 8.68 6.02 8 5 C7.67 5.66 7.34 6.32 7 7 C4.36 7 1.72 7 -1 7 C-1 3 -1 3 0 0 Z " fill="#A49385" transform="translate(242,456)"/>
<path d="M0 0 C0.33 0 0.66 0 1 0 C0.67 2.97 0.34 5.94 0 9 C0.99 9 1.98 9 3 9 C2.01 12.96 1.02 16.92 0 21 C-2 17 -2 17 -2 13 C-2.66 12.67 -3.32 12.34 -4 12 C-2.66666667 8 -1.33333333 4 0 0 Z " fill="#9E8F81" transform="translate(243,419)"/>
<path d="M0 0 C2.97 0 5.94 0 9 0 C9 0.33 9 0.66 9 1 C7.02 1 5.04 1 3 1 C2.67 1.99 2.34 2.98 2 4 C1.01 4 0.02 4 -1 4 C-0.34 4.66 0.32 5.32 1 6 C-3.33273814 6.92844389 -6.66726186 6.92844389 -11 6 C-10.401875 5.731875 -9.80375 5.46375 -9.1875 5.1875 C-6.94489213 4.1305255 -6.94489213 4.1305255 -5.5 2.3125 C-4.7575 1.6628125 -4.7575 1.6628125 -4 1 C-1.8125 1.3125 -1.8125 1.3125 0 2 C0 1.34 0 0.68 0 0 Z " fill="#9A8E81" transform="translate(517,319)"/>
<path d="M0 0 C3.40424844 1.13474948 4.21653709 1.96811304 6 5 C5.67 5.99 5.34 6.98 5 8 C4.34 7.34 3.68 6.68 3 6 C2.67 9.96 2.34 13.92 2 18 C1.34 18 0.68 18 0 18 C0 12.06 0 6.12 0 0 Z " fill="#ECECEC" transform="translate(289,546)"/>
<path d="M0 0 C0.66 0.99 1.32 1.98 2 3 C2.99 3 3.98 3 5 3 C5.66 3 6.32 3 7 3 C5.53172205 9.48489426 5.53172205 9.48489426 3 11.9375 C1 13 1 13 -1 13 C-1 12.01 -1 11.02 -1 10 C-0.34 10 0.32 10 1 10 C2.2236068 7.9254644 2.2236068 7.9254644 2 5 C0.35 5 -1.3 5 -3 5 C-2.01 3.35 -1.02 1.7 0 0 Z " fill="#9D8F80" transform="translate(554,536)"/>
<path d="M0 0 C0.66 0 1.32 0 2 0 C2 5.94 2 11.88 2 18 C1.01 17.67 0.02 17.34 -1 17 C-0.67 11.39 -0.34 5.78 0 0 Z " fill="#F3F3F3" transform="translate(367,546)"/>
<path d="M0 0 C0.66 0 1.32 0 2 0 C2.99 2.97 3.98 5.94 5 9 C4.01 9.33 3.02 9.66 2 10 C2 9.34 2 8.68 2 8 C1.34 8 0.68 8 0 8 C-0.33 8.66 -0.66 9.32 -1 10 C-1.125 2.25 -1.125 2.25 0 0 Z " fill="#9D9083" transform="translate(409,413)"/>
<path d="M0 0 C1.69393215 1.64553409 3.35732623 3.30419392 5 5 C5.73283203 5.75603516 5.73283203 5.75603516 6.48046875 6.52734375 C7.875 8.0625 7.875 8.0625 10 11 C9.6328125 13.18359375 9.6328125 13.18359375 9 15 C7.49105621 13.06891122 5.99288466 11.13093994 4.5 9.1875 C4.07074219 8.64029297 3.64148438 8.09308594 3.19921875 7.52929688 C0 3.33984375 0 3.33984375 0 0 Z " fill="#DEDEDE" transform="translate(356,547)"/>
<path d="M0 0 C1.98 0 3.96 0 6 0 C6.3125 2.8125 6.3125 2.8125 6 6 C3.75 8 3.75 8 1 9 C-1.3125 8.1875 -1.3125 8.1875 -3 7 C0.465 6.505 0.465 6.505 4 6 C4 4.68 4 3.36 4 2 C2.68 2 1.36 2 0 2 C0 1.34 0 0.68 0 0 Z " fill="#D2D2D2" transform="translate(390,555)"/>
<path d="M0 0 C1.32 0.33 2.64 0.66 4 1 C3.49287967 4.71888239 2.88391785 7.73454239 1 11 C0.01 10.67 -0.98 10.34 -2 10 C-2 9.34 -2 8.68 -2 8 C-1.34 8 -0.68 8 0 8 C0 5.36 0 2.72 0 0 Z " fill="#A69889" transform="translate(273,347)"/>
<path d="M0 0 C0.66 0 1.32 0 2 0 C1.34 2.31 0.68 4.62 0 7 C-1.98 7 -3.96 7 -6 7 C-5.67 5.35 -5.34 3.7 -5 2 C-4.360625 1.855625 -3.72125 1.71125 -3.0625 1.5625 C-1.02454854 1.18992819 -1.02454854 1.18992819 0 0 Z " fill="#9A8D7F" transform="translate(308,269)"/>
<path d="M0 0 C0.66 0 1.32 0 2 0 C2.66 2.31 3.32 4.62 4 7 C2.02 7 0.04 7 -2 7 C-1.34 4.69 -0.68 2.38 0 0 Z " fill="#1A1A1A" transform="translate(270,550)"/>
<path d="M0 0 C1.65 0 3.3 0 5 0 C5.66 1.32 6.32 2.64 7 4 C4.69 4.66 2.38 5.32 0 6 C-1.125 2.25 -1.125 2.25 0 0 Z " fill="#A99A8B" transform="translate(551,541)"/>
<path d="M0 0 C3.96 0.33 7.92 0.66 12 1 C12 1.66 12 2.32 12 3 C7.71 3 3.42 3 -1 3 C-0.67 2.01 -0.34 1.02 0 0 Z " fill="#EAEAEA" transform="translate(354,525)"/>
<path d="M0 0 C2.15377564 2.62198774 3.40072174 4.64404172 4 8 C1.69 8 -0.62 8 -3 8 C-2.01 5.36 -1.02 2.72 0 0 Z " fill="#1A1A1A" transform="translate(268,513)"/>
<path d="M0 0 C2.15377564 2.62198774 3.40072174 4.64404172 4 8 C1.69 8 -0.62 8 -3 8 C-2.01 5.36 -1.02 2.72 0 0 Z " fill="#1A1A1A" transform="translate(244,513)"/>
<path d="M0 0 C1.32 0.33 2.64 0.66 4 1 C4 1.99 4 2.98 4 4 C3.34 4.66 2.68 5.32 2 6 C0.33333333 6 -1.33333333 6 -3 6 C-3 4 -3 4 -1 2 C-0.67 1.34 -0.34 0.68 0 0 Z " fill="#A89A8D" transform="translate(461,328)"/>
<path d="M0 0 C3.24299151 2.38957269 5.50902342 4.2047869 7 8 C4.03 7.505 4.03 7.505 1 7 C0.67 4.69 0.34 2.38 0 0 Z " fill="#9C8E81" transform="translate(569,459)"/>
<path d="M0 0 C3 1 3 1 5 3 C5.66 2.67 6.32 2.34 7 2 C6.34 4.97 5.68 7.94 5 11 C3.33167423 8.49751135 2.37618326 6.58850813 1.375 3.8125 C1.11460937 3.09707031 0.85421875 2.38164062 0.5859375 1.64453125 C0.39257812 1.10183594 0.19921875 0.55914062 0 0 Z " fill="#9D9185" transform="translate(385,424)"/>
<path d="M0 0 C1.32 1.65 2.64 3.3 4 5 C3.67 5.66 3.34 6.32 3 7 C2.34 7 1.68 7 1 7 C-0.36161311 7.96113866 -1.69855198 8.95884159 -3 10 C-2.39009109 6.44219804 -1.4216319 3.3171411 0 0 Z " fill="#988B7C" transform="translate(297,286)"/>
<path d="M0 0 C0.33 0.66 0.66 1.32 1 2 C2.65 2 4.3 2 6 2 C6 3.32 6 4.64 6 6 C3.36 5.01 0.72 4.02 -2 3 C-1.34 2.01 -0.68 1.02 0 0 Z " fill="#9C9082" transform="translate(494,448)"/>
<path d="M0 0 C1.98 0 3.96 0 6 0 C6 1.98 6 3.96 6 6 C5.01 6 4.02 6 3 6 C3.33 4.68 3.66 3.36 4 2 C2.68 2 1.36 2 0 2 C0 1.34 0 0.68 0 0 Z " fill="#E6E6E6" transform="translate(248,555)"/>
<path d="M0 0 C0.99 0.33 1.98 0.66 3 1 C0.03 4.96 0.03 4.96 -3 9 C-3.99 8.67 -4.98 8.34 -6 8 C-4.02 5.36 -2.04 2.72 0 0 Z " fill="#DBDBDB" transform="translate(360,516)"/>
<path d="M0 0 C3.125 -0.1875 3.125 -0.1875 6 0 C6 1.65 6 3.3 6 5 C5.34 4.01 4.68 3.02 4 2 C3.67 2.66 3.34 3.32 3 4 C1.35 3.67 -0.3 3.34 -2 3 C-1.34 2.01 -0.68 1.02 0 0 Z " fill="#9A8D7F" transform="translate(246,459)"/>
<path d="M0 0 C0.33 0 0.66 0 1 0 C0.88541307 1.43836751 0.75790884 2.87570966 0.625 4.3125 C0.55539063 5.11300781 0.48578125 5.91351563 0.4140625 6.73828125 C0 9 0 9 -2 12 C-2.66 12 -3.32 12 -4 12 C-2.66666667 8 -1.33333333 4 0 0 Z " fill="#91877C" transform="translate(243,419)"/>
<path d="M0 0 C2 0 2 0 4.625 2.1875 C7 5 7 5 7.3125 7.8125 C7.209375 8.534375 7.10625 9.25625 7 10 C6.34 10 5.68 10 5 10 C3.35 6.7 1.7 3.4 0 0 Z " fill="#9A8C7F" transform="translate(568,365)"/>
<path d="M0 0 C2.97 0 5.94 0 9 0 C9 0.33 9 0.66 9 1 C7.02 1 5.04 1 3 1 C2.67 1.99 2.34 2.98 2 4 C0.02 4 -1.96 4 -4 4 C-3.67 3.34 -3.34 2.68 -3 2 C-2.01 2 -1.02 2 0 2 C0 1.34 0 0.68 0 0 Z " fill="#938575" transform="translate(517,319)"/>
<path d="M0 0 C0.99 0.33 1.98 0.66 3 1 C1.68 3.31 0.36 5.62 -1 8 C-1.66 7.34 -2.32 6.68 -3 6 C-3 3 -3 3 -1.5 1.3125 C-0.7575 0.6628125 -0.7575 0.6628125 0 0 Z " fill="#9B9186" transform="translate(576,520)"/>
<path d="M0 0 C0.66 1.32 1.32 2.64 2 4 C-0.64738916 5.4606285 -1.89448334 6 -5 6 C-4.67 4.35 -4.34 2.7 -4 1 C-2.02 1.495 -2.02 1.495 0 2 C0 1.34 0 0.68 0 0 Z " fill="#9A8B7C" transform="translate(249,413)"/>
<path d="M0 0 C0.66 0 1.32 0 2 0 C1.75 3.375 1.75 3.375 1 7 C-0.98 7.99 -0.98 7.99 -3 9 C-2.01 6.03 -1.02 3.06 0 0 Z " fill="#948A7D" transform="translate(272,348)"/>
<path d="M0 0 C1.32 0.33 2.64 0.66 4 1 C3.67 2.98 3.34 4.96 3 7 C2.34 7 1.68 7 1 7 C0.67 4.69 0.34 2.38 0 0 Z " fill="#A59689" transform="translate(276,340)"/>
<path d="M0 0 C1.125 3.75 1.125 3.75 0 6 C0.99 5.67 1.98 5.34 3 5 C3.33 5.66 3.66 6.32 4 7 C3.34 7.66 2.68 8.32 2 9 C0.68 9 -0.64 9 -2 9 C-1.51421457 5.87709365 -1.0013988 3.00419641 0 0 Z " fill="#998B7D" transform="translate(281,325)"/>
<path d="M0 0 C0.33 1.32 0.66 2.64 1 4 C-1.97 6.475 -1.97 6.475 -5 9 C-5.33 8.01 -5.66 7.02 -6 6 C-4 4 -2 2 0 0 Z " fill="#A99A8A" transform="translate(310,264)"/>
<path d="M0 0 C2 1.1875 2 1.1875 4 3 C4.25 5.6875 4.25 5.6875 4 8 C2.35 6.35 0.7 4.7 -1 3 C-0.67 2.01 -0.34 1.02 0 0 Z " fill="#0C0805" transform="translate(443,521)"/>
<path d="M0 0 C0.99 0 1.98 0 3 0 C3.99 2.31 4.98 4.62 6 7 C5.01 7.495 5.01 7.495 4 8 C4 7.34 4 6.68 4 6 C3.34 6 2.68 6 2 6 C1.34 4.02 0.68 2.04 0 0 Z " fill="#998E81" transform="translate(428,505)"/>
<path d="M0 0 C1.32 1.32 2.64 2.64 4 4 C2.35 5.32 0.7 6.64 -1 8 C-1.04241723 5.66705225 -1.04092937 3.33297433 -1 1 C-0.67 0.67 -0.34 0.34 0 0 Z " fill="#A69889" transform="translate(258,384)"/>
<path d="M0 0 C0.66 1.32 1.32 2.64 2 4 C-1.75 8.875 -1.75 8.875 -4 10 C-2.8905928 6.51329166 -1.73662334 3.22515763 0 0 Z " fill="#978E81" transform="translate(434,351)"/>
<path d="M0 0 C0.66 0 1.32 0 2 0 C2 2.31 2 4.62 2 7 C0.68 7 -0.64 7 -2 7 C-1.34 4.69 -0.68 2.38 0 0 Z " fill="#AB9B8C" transform="translate(283,324)"/>
<path d="M0 0 C0.9075 0.61875 1.815 1.2375 2.75 1.875 C5.14948817 3.44389611 7.40961612 4.80443821 10 6 C6.67179946 6.22692276 4.58198664 6.32162419 1.625 4.6875 C0 3 0 3 0 0 Z " fill="#E4E4E4" transform="translate(381,558)"/>
<path d="M0 0 C0.99 0.33 1.98 0.66 3 1 C2.34 1.66 1.68 2.32 1 3 C0.60235737 4.98821313 0.26224651 6.98944339 0 9 C-0.66 8.67 -1.32 8.34 -2 8 C-1.125 1.125 -1.125 1.125 0 0 Z " fill="#CFCFCF" transform="translate(239,549)"/>
<path d="M0 0 C0.66 0.33 1.32 0.66 2 1 C2 2.65 2 4.3 2 6 C1.01 6.495 1.01 6.495 0 7 C0 6.34 0 5.68 0 5 C-0.66 5 -1.32 5 -2 5 C-1.125 1.125 -1.125 1.125 0 0 Z " fill="#A89684" transform="translate(261,378)"/>
<path d="M0 0 C1.98 0.66 3.96 1.32 6 2 C6 3.65 6 5.3 6 7 C1.125 2.25 1.125 2.25 0 0 Z " fill="#9C8F84" transform="translate(434,414)"/>
<path d="M0 0 C2.2477975 2.05233685 3.0022242 3.00667261 4 6 C3.01 6.495 3.01 6.495 2 7 C0.68 6.01 -0.64 5.02 -2 4 C-1.34 2.68 -0.68 1.36 0 0 Z " fill="#AC9D8F" transform="translate(436,409)"/>
<path d="M0 0 C0.99 0 1.98 0 3 0 C3.33 1.65 3.66 3.3 4 5 C3.01 5 2.02 5 1 5 C0.67 3.35 0.34 1.7 0 0 Z " fill="#A89B8E" transform="translate(298,285)"/>
<path d="M0 0 C0.66 0.33 1.32 0.66 2 1 C1.67 2.65 1.34 4.3 1 6 C0.34 6 -0.32 6 -1 6 C-1.33 6.66 -1.66 7.32 -2 8 C-2 4.23312136 -1.76462683 3.08809695 0 0 Z " fill="#988E82" transform="translate(234,439)"/>
</svg>
